<mxfile host="app.diagrams.net" modified="2022-06-07T00:57:57.487Z" agent="5.0 (Windows NT 10.0; Win64; x64) AppleWebKit/537.36 (KHTML, like Gecko) Chrome/102.0.0.0 Safari/537.36" etag="Qclg4BBZS6olzLVIJPTa" version="19.0.0" type="github">
  <diagram id="prtHgNgQTEPvFCAcTncT" name="Page-1">
    <mxGraphModel dx="2302" dy="1074" grid="1" gridSize="10" guides="1" tooltips="1" connect="1" arrows="1" fold="1" page="1" pageScale="1" pageWidth="827" pageHeight="1169" math="0" shadow="0">
      <root>
        <mxCell id="0" />
        <mxCell id="1" parent="0" />
        <mxCell id="dNxyNK7c78bLwvsdeMH5-11" value="&lt;font style=&quot;font-size: 24px;&quot;&gt;&lt;font style=&quot;&quot;&gt;综合验证平台(名字待定，目前&lt;/font&gt;&lt;font style=&quot;&quot;&gt;觉得&lt;/font&gt;&lt;font style=&quot;&quot;&gt;不够大气)&lt;/font&gt;&lt;/font&gt;" style="swimlane;html=1;startSize=20;horizontal=1;containerType=tree;glass=0;fillColor=#FFFFFF;" parent="1" vertex="1">
          <mxGeometry x="90" y="40" width="1290" height="440" as="geometry" />
        </mxCell>
        <mxCell id="Vf2IM7WHf4UVATlkxCF8-9" value="" style="shape=ext;double=1;rounded=0;whiteSpace=wrap;html=1;fillColor=#FFCE9F;" vertex="1" parent="dNxyNK7c78bLwvsdeMH5-11">
          <mxGeometry x="70" y="40" width="520" height="200" as="geometry" />
        </mxCell>
        <mxCell id="Vf2IM7WHf4UVATlkxCF8-2" value="UI&amp;nbsp; 编辑" style="rounded=0;whiteSpace=wrap;html=1;" vertex="1" parent="dNxyNK7c78bLwvsdeMH5-11">
          <mxGeometry x="100" y="70" width="120" height="60" as="geometry" />
        </mxCell>
        <mxCell id="Vf2IM7WHf4UVATlkxCF8-7" value="状态机" style="rounded=1;whiteSpace=wrap;html=1;" vertex="1" parent="dNxyNK7c78bLwvsdeMH5-11">
          <mxGeometry x="253.5" y="70" width="120" height="60" as="geometry" />
        </mxCell>
        <mxCell id="Vf2IM7WHf4UVATlkxCF8-25" value="" style="shape=ext;double=1;rounded=0;whiteSpace=wrap;html=1;fillColor=#FFCE9F;" vertex="1" parent="dNxyNK7c78bLwvsdeMH5-11">
          <mxGeometry x="720" y="40" width="520" height="200" as="geometry" />
        </mxCell>
        <mxCell id="Vf2IM7WHf4UVATlkxCF8-26" value="...." style="rounded=1;whiteSpace=wrap;html=1;" vertex="1" parent="dNxyNK7c78bLwvsdeMH5-11">
          <mxGeometry x="220" y="160" width="120" height="60" as="geometry" />
        </mxCell>
        <mxCell id="Vf2IM7WHf4UVATlkxCF8-27" value="软总线" style="rounded=0;whiteSpace=wrap;html=1;fontSize=24;fillColor=#CCFFCC;" vertex="1" parent="dNxyNK7c78bLwvsdeMH5-11">
          <mxGeometry x="70" y="290" width="1180" height="50" as="geometry" />
        </mxCell>
        <mxCell id="Vf2IM7WHf4UVATlkxCF8-29" value="" style="shape=flexArrow;endArrow=classic;html=1;rounded=0;fontSize=36;entryX=0.537;entryY=1.008;entryDx=0;entryDy=0;entryPerimeter=0;width=9;startSize=5.95;endSize=4.06;" edge="1" parent="dNxyNK7c78bLwvsdeMH5-11" target="Vf2IM7WHf4UVATlkxCF8-9">
          <mxGeometry width="50" height="50" relative="1" as="geometry">
            <mxPoint x="350" y="290" as="sourcePoint" />
            <mxPoint x="400" y="240" as="targetPoint" />
          </mxGeometry>
        </mxCell>
        <mxCell id="Vf2IM7WHf4UVATlkxCF8-31" value="" style="shape=flexArrow;endArrow=classic;html=1;rounded=0;fontSize=36;exitX=0.78;exitY=0.2;exitDx=0;exitDy=0;exitPerimeter=0;" edge="1" parent="dNxyNK7c78bLwvsdeMH5-11" target="Vf2IM7WHf4UVATlkxCF8-25">
          <mxGeometry width="50" height="50" relative="1" as="geometry">
            <mxPoint x="981.95" y="290" as="sourcePoint" />
            <mxPoint x="978.05" y="230" as="targetPoint" />
          </mxGeometry>
        </mxCell>
        <mxCell id="Vf2IM7WHf4UVATlkxCF8-3" value="验证仿真" style="rounded=1;whiteSpace=wrap;html=1;" vertex="1" parent="dNxyNK7c78bLwvsdeMH5-11">
          <mxGeometry x="820" y="100" width="120" height="60" as="geometry" />
        </mxCell>
        <mxCell id="Vf2IM7WHf4UVATlkxCF8-32" value="AR 仿真" style="rounded=1;whiteSpace=wrap;html=1;" vertex="1" parent="dNxyNK7c78bLwvsdeMH5-11">
          <mxGeometry x="970" y="100" width="120" height="60" as="geometry" />
        </mxCell>
        <mxCell id="Vf2IM7WHf4UVATlkxCF8-33" value="...." style="rounded=1;whiteSpace=wrap;html=1;" vertex="1" parent="dNxyNK7c78bLwvsdeMH5-11">
          <mxGeometry x="1110" y="100" width="120" height="60" as="geometry" />
        </mxCell>
        <mxCell id="Vf2IM7WHf4UVATlkxCF8-34" value="图形平台" style="text;html=1;strokeColor=none;fillColor=none;align=center;verticalAlign=middle;whiteSpace=wrap;rounded=0;fontSize=24;" vertex="1" parent="dNxyNK7c78bLwvsdeMH5-11">
          <mxGeometry x="480" y="140" width="100" height="30" as="geometry" />
        </mxCell>
        <mxCell id="Vf2IM7WHf4UVATlkxCF8-48" value="仿真平台" style="text;html=1;strokeColor=none;fillColor=none;align=center;verticalAlign=middle;whiteSpace=wrap;rounded=0;fontSize=24;" vertex="1" parent="dNxyNK7c78bLwvsdeMH5-11">
          <mxGeometry x="750" y="175" width="100" height="30" as="geometry" />
        </mxCell>
      </root>
    </mxGraphModel>
  </diagram>
</mxfile>
